<svg xmlns="http://www.w3.org/2000/svg" xmlns:xlink="http://www.w3.org/1999/xlink" width="460" height="460" viewBox="0 0 460 460"><defs><clipPath id="b"><rect width="460" height="460"/></clipPath></defs><g id="a" clip-path="url(#b)"><rect width="404" height="404" rx="50" transform="translate(28 28)" fill="#eef5ff"/><g transform="translate(-1344.957 -199.861)"><rect width="34.408" height="266.324" transform="translate(1579.406 296.578)" fill="#9bc1f9" opacity="0.6"/><rect width="34.408" height="185.089" transform="translate(1531.354 377.813)" fill="#9bc1f9" opacity="0.6"/><rect width="34.408" height="208.623" transform="translate(1628.15 354.28)" fill="#9bc1f9" opacity="0.6"/><rect width="34.408" height="216.827" transform="translate(1483.302 346.075)" fill="#9bc1f9" opacity="0.6"/><rect width="34.408" height="152.539" transform="translate(1435.25 410.363)" fill="#9bc1f9" opacity="0.6"/><g transform="translate(1435.25 357.958)"><rect width="34.408" height="204.944" transform="translate(144.156 0)" fill="#9bc1f9" opacity="0.3" style="mix-blend-mode:multiply;isolation:isolate"/><rect width="34.408" height="142.431" transform="translate(96.104 62.513)" fill="#9bc1f9" opacity="0.3" style="mix-blend-mode:multiply;isolation:isolate"/><rect width="34.408" height="160.541" transform="translate(192.899 44.403)" fill="#9bc1f9" opacity="0.3" style="mix-blend-mode:multiply;isolation:isolate"/><rect width="34.408" height="166.855" transform="translate(48.052 38.089)" fill="#9bc1f9" opacity="0.3" style="mix-blend-mode:multiply;isolation:isolate"/><rect width="34.408" height="117.383" transform="translate(0 87.561)" fill="#9bc1f9" opacity="0.3" style="mix-blend-mode:multiply;isolation:isolate"/></g><path d="M1679.536,308.447l-27.417,20.735,10.458.667-65.448,115.188-36.238-54.33L1509.628,510.28l-32.973-46.834-41.1,58.094,2.586,10.4,38.494-54.15,34.854,49.505,51.075-119.134,35.16,52.714,72.459-127.526,6.727,7.235Z" transform="translate(-0.254 -9.831)" fill="#5183bf"/><g transform="translate(1594.144 541.778)"><path d="M2468.525,1748.316V1761.7c0,2.164-24.143,3.919-53.925,3.919s-53.925-1.754-53.925-3.919v-13.387Z" transform="translate(-2360.675 -1744.255)" fill="#e59f39"/><g transform="translate(0 4.061)"><path d="M2761.529,1765.47v-17.154h39.025V1761.7C2800.554,1763.491,2784.063,1765,2761.529,1765.47Z" transform="translate(-2692.703 -1748.316)" fill="#eab054"/><path d="M2595.707,1765.505c-4.189.076-8.572.116-13.084.116-6.724,0-13.16-.09-19.1-.253v-17.053h32.18Z" transform="translate(-2528.698 -1748.316)" fill="#eab054"/><path d="M2393.344,1765.305c-19.213-.6-32.669-1.987-32.669-3.6v-13.387h32.669Z" transform="translate(-2360.675 -1748.316)" fill="#eab054"/></g><ellipse cx="53.925" cy="3.919" rx="53.925" ry="3.919" transform="translate(0 0)" fill="#e59f39"/><path d="M2416.115,1734.382c0,1.5,19.881,2.717,44.406,2.717s44.407-1.217,44.407-2.717-19.882-2.717-44.407-2.717S2416.115,1732.881,2416.115,1734.382Z" transform="translate(-2406.596 -1730.463)" fill="#f7cc7f"/></g><g transform="translate(1603.37 527.612)"><path d="M2522.26,1665.811V1679.2c0,2.165-24.143,3.919-53.926,3.919s-53.925-1.754-53.925-3.919v-13.387Z" transform="translate(-2414.409 -1661.75)" fill="#e59f39"/><g transform="translate(0 4.061)"><path d="M2815.264,1682.965v-17.154h39.025V1679.2C2854.289,1680.987,2837.8,1682.5,2815.264,1682.965Z" transform="translate(-2746.438 -1665.811)" fill="#eab054"/><path d="M2649.442,1683c-4.189.076-8.572.116-13.084.116-6.724,0-13.16-.089-19.1-.253v-17.052h32.18Z" transform="translate(-2582.432 -1665.811)" fill="#eab054"/><path d="M2447.078,1682.8c-19.213-.6-32.669-1.987-32.669-3.6v-13.387h32.669Z" transform="translate(-2414.409 -1665.811)" fill="#eab054"/></g><ellipse cx="53.925" cy="3.919" rx="53.925" ry="3.919" transform="translate(0 0)" fill="#e59f39"/><ellipse cx="44.406" cy="2.717" rx="44.406" ry="2.717" transform="translate(9.519 1.202)" fill="#f7cc7f"/></g><g transform="translate(1597.223 513.07)"><path d="M2486.458,1581.113V1594.5c0,2.164-24.143,3.918-53.925,3.918s-53.926-1.755-53.926-3.918v-13.387Z" transform="translate(-2378.607 -1577.052)" fill="#e59f39"/><g transform="translate(0 4.061)"><path d="M2779.463,1598.267v-17.154h39.025V1594.5C2818.488,1596.288,2802,1597.8,2779.463,1598.267Z" transform="translate(-2710.636 -1581.113)" fill="#eab054"/><path d="M2613.64,1598.3c-4.189.076-8.572.116-13.084.116-6.724,0-13.16-.089-19.1-.253v-17.053h32.18Z" transform="translate(-2546.631 -1581.113)" fill="#eab054"/><path d="M2411.275,1598.1c-19.212-.6-32.668-1.987-32.668-3.6v-13.387h32.668Z" transform="translate(-2378.607 -1581.113)" fill="#eab054"/></g><ellipse cx="53.925" cy="3.919" rx="53.925" ry="3.919" transform="translate(0 0)" fill="#e59f39"/><ellipse cx="44.406" cy="2.717" rx="44.406" ry="2.717" transform="translate(9.519 1.202)" fill="#f7cc7f"/></g><g transform="translate(1603.37 498.726)"><path d="M2522.26,1497.576v13.387c0,2.164-24.143,3.918-53.926,3.918s-53.925-1.755-53.925-3.918v-13.387Z" transform="translate(-2414.409 -1493.515)" fill="#e59f39"/><g transform="translate(0 4.061)"><path d="M2815.264,1514.73v-17.154h39.025v13.387C2854.289,1512.751,2837.8,1514.26,2815.264,1514.73Z" transform="translate(-2746.438 -1497.576)" fill="#eab054"/><path d="M2649.442,1514.765c-4.189.076-8.572.116-13.084.116-6.724,0-13.16-.089-19.1-.253v-17.053h32.18Z" transform="translate(-2582.432 -1497.576)" fill="#eab054"/><path d="M2447.078,1514.565c-19.213-.6-32.669-1.987-32.669-3.6v-13.387h32.669Z" transform="translate(-2414.409 -1497.576)" fill="#eab054"/></g><ellipse cx="53.925" cy="3.919" rx="53.925" ry="3.919" transform="translate(0 0)" fill="#e59f39"/><ellipse cx="44.406" cy="2.717" rx="44.406" ry="2.717" transform="translate(9.519 1.202)" fill="#f7cc7f"/></g><g transform="translate(1641.951 459.886)"><path d="M2733.472,1276.933l-3.239,11.309c-.524,1.828-21.344-2.532-46.5-9.738s-45.131-14.531-44.608-16.359l3.239-11.309Z" transform="translate(-2639.111 -1250.299)" fill="#e59f39"/><g transform="translate(0 0.537)"><path d="M2972.5,1362.324l4.151-14.491,32.968,9.443-3.24,11.309C3005.946,1370.1,2991.65,1367.381,2972.5,1362.324Z" transform="translate(-2915.257 -1331.179)" fill="#eab054"/><path d="M2832.523,1322.229c-3.557-.95-7.27-1.976-11.082-3.068-5.68-1.627-11.1-3.26-16.071-4.834l4.127-14.406,27.185,7.787Z" transform="translate(-2776.824 -1291.493)" fill="#eab054"/><path d="M2665.848,1273.093c-16.086-5.156-27.118-9.583-26.727-10.948l3.239-11.309,27.6,7.905Z" transform="translate(-2639.111 -1250.836)" fill="#eab054"/></g><path d="M2658.188,1248.126c-.524,1.828,19.448,9.152,44.607,16.359s45.98,11.567,46.5,9.738-19.448-9.153-44.607-16.359S2658.711,1246.3,2658.188,1248.126Z" transform="translate(-2654.904 -1247.71)" fill="#e59f39"/><path d="M2705.044,1262.371c-.363,1.268,16.138,7.106,36.856,13.041s37.809,9.718,38.172,8.45-16.138-7.106-36.856-13.041S2705.407,1261.1,2705.044,1262.371Z" transform="translate(-2693.719 -1259.651)" fill="#f7cc7f"/></g><g transform="translate(1616.19 408.177)"><path d="M2579.962,949.5l3.449,11.247c.558,1.818-19.274,9.513-44.295,17.186s-45.757,12.42-46.315,10.6l-3.449-11.247Z" transform="translate(-2489.304 -948.996)" fill="#e59f39"/><g transform="translate(0.048 0.507)"><path d="M2830.546,973.971l-4.42-14.412,32.786-10.055,3.449,11.247C2862.822,962.254,2849.357,967.77,2830.546,973.971Z" transform="translate(-2768.302 -949.504)" fill="#eab054"/><path d="M2691.24,1025.231c-3.5,1.143-7.172,2.306-10.962,3.469-5.649,1.732-11.08,3.315-16.109,4.708l-4.393-14.327,27.036-8.291Z" transform="translate(-2630.514 -1000.267)" fill="#eab054"/><path d="M2521.176,1076.6c-16.3,4.447-27.958,6.748-28.375,5.391l-3.449-11.247,27.446-8.417Z" transform="translate(-2489.352 -1042.951)" fill="#eab054"/></g><path d="M2489.083,974.724c.558,1.818,21.293-2.928,46.315-10.6s44.853-15.368,44.3-17.186-21.293,2.928-46.315,10.6S2488.525,972.906,2489.083,974.724Z" transform="translate(-2489.072 -946.549)" fill="#e59f39"/><path d="M2535.684,984.876c.386,1.261,17.4-2.84,38.008-9.159s36.994-12.463,36.608-13.724-17.4,2.84-38.008,9.159S2535.3,983.616,2535.684,984.876Z" transform="translate(-2527.675 -959.153)" fill="#f7cc7f"/></g><g transform="translate(1541.979 528.151)"><rect width="94.47" height="34.383" transform="translate(94.47 34.383) rotate(180)" fill="#50bfa5"/><g transform="translate(0 0)"><rect width="94.47" height="4.423" transform="translate(94.47 9.434) rotate(180)" fill="#96d9c9"/><rect width="94.47" height="4.423" transform="translate(94.47 18.074) rotate(180)" fill="#96d9c9"/><rect width="94.47" height="4.423" transform="translate(94.47 26.714) rotate(180)" fill="#96d9c9"/><rect width="94.47" height="4.423" transform="translate(94.47 34.383) rotate(180)" fill="#96d9c9"/><rect width="19.648" height="34.383" transform="translate(54.815 34.383) rotate(180)" fill="#f7cc7f"/></g><rect width="14.267" height="34.383" transform="translate(107.59 34.383) rotate(180)" fill="#3c8f7c"/></g></g></g></svg>